<?xml version="1.0" encoding="utf-8"?>
<!-- Generator: Adobe Illustrator 19.2.1, SVG Export Plug-In . SVG Version: 6.00 Build 0)  -->
<svg version="1.1" id="Layer_1" xmlns="http://www.w3.org/2000/svg" xmlns:xlink="http://www.w3.org/1999/xlink" x="0px" y="0px"
	 viewBox="0 0 1140 1171" style="enable-background:new 0 0 1140 1171;" xml:space="preserve">
<style type="text/css">
	.st0{stroke:#000000;stroke-miterlimit:10;}
	.st1{fill:url(#SVGID_1_);stroke:#000000;stroke-miterlimit:10;}
	.st2{fill:url(#SVGID_2_);stroke:#000000;stroke-miterlimit:10;}
	.st3{fill:none;stroke:#000000;stroke-miterlimit:10;}
</style>
<ellipse transform="matrix(0.3481 -0.9375 0.9375 0.3481 -562.011 946.8865)" class="st0" cx="399.8" cy="877.5" rx="214.7" ry="8.8"/>
<ellipse transform="matrix(0.9375 -0.3481 0.3481 0.9375 -262.3306 312.2465)" class="st0" cx="737.9" cy="886.3" rx="8.8" ry="214.7"/>
<linearGradient id="SVGID_1_" gradientUnits="userSpaceOnUse" x1="325.2667" y1="656.6422" x2="815.2758" y2="656.6422">
	<stop  offset="0" style="stop-color:#000000"/>
	<stop  offset="3.362329e-02" style="stop-color:#090000"/>
	<stop  offset="8.956598e-02" style="stop-color:#230000"/>
	<stop  offset="0.1609" style="stop-color:#4C0000"/>
	<stop  offset="0.2449" style="stop-color:#860000"/>
	<stop  offset="0.3353" style="stop-color:#CC0000"/>
</linearGradient>
<path class="st1" d="M760,613.7c-35.1,2.8-142.6,0.6-169.9-0.1c-0.1,0-168.9,3.2-209.3,0.1c-40.3-3.2-50.7,24.5-52.9,28.9
	c5,21.3,17.2,46.4,51.1,51.5c36,5.5,128.8,6.1,209,5.5c70.7,0.2,142.2-0.9,172.4-5.5c35-5.3,48.2-35.4,52.8-57.4
	C809.4,629.4,794.3,611,760,613.7z"/>
<linearGradient id="SVGID_2_" gradientUnits="userSpaceOnUse" x1="324.0045" y1="382.6164" x2="815.2673" y2="382.6164">
	<stop  offset="0.3428" style="stop-color:#CC0000"/>
	<stop  offset="1" style="stop-color:#000000"/>
</linearGradient>
<path class="st2" d="M813.9,602.7c-26.5-112.3-55.4-224.3-79.6-337.2c-15.2-71.1-82.6-142.3-159.6-143.1
	c-33.9-0.3-62.5,5.8-90.8,25.9c-40.3,28.5-67.5,64.2-77.8,112.5c-6.5,30.5-14.4,60.9-21.6,91.3c-16.2,68.7-32.4,137.3-48.6,206
	c-3.5,14.8-7.5,29.7-10.5,44.6c0,0-3.9,19.5,1.2,40c0,0,13.8-32.6,54.1-29.6c40.3,3,209.2-0.1,209.3-0.1c-4.1-0.1-6.4,0-6.4,0
	s2.3,0.3,6.4,0.3h0h0c27.3,0,134.8,2.5,169.9-0.1c34.4-2.5,49.4,20.6,53.2,27.5C817.5,621.1,813.9,602.7,813.9,602.7z"/>
<line class="st3" x1="439.4" y1="793.7" x2="439.4" y2="793.7"/>
<line class="st3" x1="428.6" y1="793.7" x2="737.9" y2="886.3"/>
<line class="st3" x1="709.1" y1="793.7" x2="399.8" y2="886.3"/>
<line class="st3" x1="452.9" y1="754.4" x2="728.8" y2="837"/>
<line class="st3" x1="695.1" y1="751.8" x2="421.3" y2="833.8"/>
</svg>
